<svg width="115" height="28" viewBox="0 0 115 28" fill="none" xmlns="http://www.w3.org/2000/svg">
<path d="M41.6703 22.0325H38.7994L33.3884 7.875H35.9808L37.9643 13.2475C38.7472 15.365 39.5302 17.5 40.2609 19.6175C41.0091 17.4825 41.7746 15.3125 42.575 13.1775L44.5411 7.875H47.0987L41.6703 22.0325Z" fill="white"/>
<path d="M51.3092 4.86497C51.3092 5.75747 50.5959 6.50997 49.6563 6.50997C48.7168 6.50997 48.0034 5.75747 48.0034 4.86497C48.0034 3.97247 48.7168 3.21997 49.6563 3.21997C50.5959 3.21997 51.3092 3.97247 51.3092 4.86497ZM48.4384 22.0325V7.87497H50.8743V22.0325H48.4384Z" fill="white"/>
<path d="M64.9325 12.495V22.0325H62.6185V20.16C61.7311 21.595 59.9912 22.3825 57.8512 22.3825C55.0152 22.3825 52.8751 21.105 52.8751 18.305C52.8751 14.63 56.5289 14.0525 60.3044 13.2125L62.5663 12.7225V12.67C62.5663 10.5175 61.1222 9.67747 59.1561 9.67747C56.9986 9.67747 55.4327 10.6925 54.5628 11.4625L53.7625 9.39748C54.8412 8.52248 56.7203 7.54248 59.2605 7.54248C62.8621 7.52498 64.9325 9.46747 64.9325 12.495ZM62.5663 16.0125V14.7175L60.5132 15.1725C56.9116 15.9775 55.311 16.5025 55.311 18.2875C55.311 19.6 56.3897 20.3175 58.1992 20.3175C60.5654 20.3 62.5663 19.075 62.5663 16.0125Z" fill="white"/>
<path d="M81.2352 14.945C81.2352 19.4775 78.5906 22.3825 74.6585 22.3825C72.6054 22.3825 70.9699 21.6125 69.8912 20.1425V26.215H67.4554V7.87496H69.8042V10.0975C70.8829 8.43497 72.6228 7.52496 74.7977 7.52496C78.6254 7.52496 81.2352 10.43 81.2352 14.945ZM78.7646 14.945C78.7646 11.7425 77.0073 9.71246 74.3627 9.71246C71.7181 9.71246 69.7868 11.7425 69.7868 14.9975C69.7868 18.165 71.6311 20.2125 74.3105 20.2125C76.9899 20.2125 78.7646 18.165 78.7646 14.945Z" fill="white"/>
<path d="M83.2883 22.0324V3.76245H85.7241V22.0324H83.2883Z" fill="white"/>
<path d="M99.7998 12.495V22.0325H97.4858V20.16C96.5984 21.595 94.8585 22.3825 92.7185 22.3825C89.8825 22.3825 87.7424 21.105 87.7424 18.305C87.7424 14.63 91.3962 14.0525 95.1717 13.2125L97.4336 12.7225V12.67C97.4336 10.5175 95.9895 9.67747 94.0234 9.67747C91.8659 9.67747 90.3 10.6925 89.4301 11.4625L88.6297 9.39748C89.7085 8.52248 91.5875 7.54248 94.1278 7.54248C97.7293 7.52498 99.7998 9.46747 99.7998 12.495ZM97.4336 16.0125V14.7175L95.3805 15.1725C91.7789 15.9775 90.1782 16.5025 90.1782 18.2875C90.1782 19.6 91.257 20.3175 93.0665 20.3175C95.4327 20.3 97.4336 19.075 97.4336 16.0125Z" fill="white"/>
<path d="M109.056 21.105C107.751 24.4825 106.116 25.8125 103.123 26.53L102.357 24.5525C103.819 24.0625 105.124 23.59 106.098 22.19L100.618 7.875H103.21L105.089 12.9675C105.872 15.1025 106.812 17.64 107.403 19.3025C108.047 17.605 108.952 15.1025 109.752 12.9675L111.631 7.875H114.154L109.056 21.105Z" fill="white"/>
<path d="M13.9191 28C21.6064 28 27.8382 21.732 27.8382 14C27.8382 6.26801 21.6064 0 13.9191 0C6.23178 0 0 6.26801 0 14C0 21.732 6.23178 28 13.9191 28Z" fill="url(#paint0_linear_1_5307)"/>
<path fill-rule="evenodd" clip-rule="evenodd" d="M5.032 24.7754L19.5041 16.9575L19.5389 16.9225L19.6433 16.835V11.235L19.5389 11.1475L19.5041 11.0775L4.99981 3.25159C3.49954 4.51241 2.26727 6.08507 1.40146 7.87049L1.40931 7.87501L13.6059 14.0175L1.41491 20.1572C2.28622 21.9439 3.52494 23.5166 5.032 24.7754Z" fill="url(#paint1_linear_1_5307)"/>
<defs>
<linearGradient id="paint0_linear_1_5307" x1="8.47905" y1="26.8904" x2="19.4664" y2="1.15542" gradientUnits="userSpaceOnUse">
<stop offset="0.1" stop-color="#CC0099"/>
<stop offset="0.1989" stop-color="#CF0090"/>
<stop offset="0.3602" stop-color="#D70078"/>
<stop offset="0.5638" stop-color="#E40050"/>
<stop offset="0.7995" stop-color="#F70019"/>
<stop offset="0.9" stop-color="#FF0000"/>
</linearGradient>
<linearGradient id="paint1_linear_1_5307" x1="1.28076" y1="14" x2="19.6387" y2="14" gradientUnits="userSpaceOnUse">
<stop stop-color="#EBF5F7"/>
<stop offset="0.1524" stop-color="#F1F8FA"/>
<stop offset="0.5381" stop-color="#FCFDFE"/>
<stop offset="1" stop-color="white"/>
</linearGradient>
</defs>
</svg>
